<?xml version="1.0" standalone="no"?>
<!DOCTYPE svg PUBLIC "-//W3C//DTD SVG 20010904//EN"
 "http://www.w3.org/TR/2001/REC-SVG-20010904/DTD/svg10.dtd">
<svg version="1.0" xmlns="http://www.w3.org/2000/svg"
 width="300.000000pt" height="116.000000pt" viewBox="0 0 300.000000 116.000000"
 preserveAspectRatio="xMidYMid meet">
<metadata>
Created by potrace 1.10, written by Peter Selinger 2001-2011
</metadata>
<g transform="translate(0.000000,116.000000) scale(0.100000,-0.100000)"
fill="#000000" stroke="none">
<path d="M723 1040 c-41 -24 -54 -38 -68 -75 -15 -39 -16 -51 -5 -92 7 -27 19
-59 25 -72 l13 -25 16 33 c10 17 20 54 23 82 9 72 26 61 21 -13 -3 -35 -9 -72
-13 -83 -12 -31 37 23 53 59 16 36 15 216 -2 216 -6 0 -34 -13 -63 -30z m37
-61 c0 -16 -4 -28 -8 -25 -12 7 -28 -6 -51 -44 l-21 -35 0 34 c0 21 10 47 26
68 32 42 54 43 54 2z"/>
<path d="M333 992 c1 -60 -6 -113 -23 -172 -18 -62 -12 -152 13 -198 22 -41
136 -166 144 -159 2 3 -6 22 -19 42 -19 34 -22 56 -26 181 -7 227 19 232 38 7
14 -172 60 -264 173 -346 31 -23 36 -24 27 -8 -5 11 -15 23 -21 27 -21 13 -49
89 -49 137 0 26 11 100 25 164 24 109 24 120 11 167 -23 77 -83 130 -201 174
-33 13 -67 27 -76 32 -15 8 -17 2 -16 -48z m129 -35 c20 -8 57 -35 81 -59 62
-60 66 -93 29 -271 l-28 -139 -17 39 c-17 37 -25 73 -32 140 -13 130 -18 156
-39 178 -19 22 -23 23 -41 10 -17 -13 -20 -30 -23 -123 -2 -59 -8 -111 -13
-116 -12 -13 -49 72 -49 114 0 19 9 68 20 109 11 41 20 89 20 107 0 28 3 31
28 29 15 -1 44 -9 64 -18z"/>
<path d="M765 724 c-46 -24 -76 -55 -97 -102 -22 -48 -37 -182 -21 -182 20 0
104 83 130 128 15 25 29 40 31 33 8 -25 -31 -102 -75 -146 -24 -25 -40 -45
-33 -45 20 0 105 48 127 72 20 21 63 101 109 203 10 22 20 43 22 48 8 15 -162
7 -193 -9z m127 -37 c-2 -10 -12 -38 -22 -63 l-20 -45 -24 26 -25 27 -54 -56
c-29 -31 -57 -56 -60 -56 -12 0 -8 39 8 77 29 68 93 111 164 109 29 -1 35 -5
33 -19z"/>
<path d="M1252 572 c-34 -70 -62 -130 -62 -134 0 -3 9 -4 19 -1 11 3 27 22 35
44 l16 39 65 0 65 0 20 -40 c11 -22 27 -40 35 -40 8 0 15 2 15 4 0 20 -122
256 -132 255 -7 0 -41 -57 -76 -127z m102 28 c9 -22 16 -43 14 -47 -5 -10 -88
-12 -88 -1 0 12 43 88 51 88 3 0 13 -18 23 -40z"/>
<path d="M1620 562 c0 -119 2 -133 17 -130 12 2 16 15 17 58 l1 55 68 -2 c37
-1 72 -5 77 -8 6 -3 10 -29 10 -56 0 -43 3 -50 18 -47 14 3 16 12 13 53 -1 28
-7 55 -13 62 -7 8 -5 19 6 35 22 31 20 61 -6 86 -19 17 -38 21 -116 24 l-92 3
0 -133z m190 83 c34 -41 -15 -74 -102 -67 l-58 4 0 39 0 39 74 0 c52 0 77 -4
86 -15z"/>
<path d="M2617 694 c-4 -4 -7 -18 -7 -31 0 -28 23 -27 28 1 4 20 -11 40 -21
30z"/>
<path d="M1886 595 c-21 -19 -26 -33 -26 -69 0 -38 5 -48 32 -71 44 -38 110
-31 150 14 17 19 28 25 28 17 0 -8 12 -24 26 -35 51 -40 144 -18 144 33 0 31
-17 43 -79 57 -40 8 -51 15 -49 27 2 12 16 18 45 20 34 3 42 0 48 -17 7 -24
35 -28 35 -6 0 29 -38 55 -81 55 -56 0 -79 -14 -79 -50 0 -34 24 -51 85 -59
31 -5 40 -10 40 -26 0 -17 -7 -20 -45 -20 -37 0 -47 4 -55 23 -5 12 -15 22
-22 22 -7 0 -17 18 -23 40 -13 50 -42 70 -101 70 -35 0 -52 -6 -73 -25z m128
-21 c24 -24 20 -80 -6 -98 -43 -30 -101 -15 -118 30 -10 26 1 61 24 76 20 14
84 8 100 -8z"/>
<path d="M2289 607 c-47 -36 -52 -105 -10 -148 31 -31 68 -37 115 -19 17 6 26
6 26 0 0 -6 7 -10 15 -10 12 0 15 17 15 93 l0 93 -72 1 c-45 2 -79 -2 -89 -10z
m113 -34 c42 -37 7 -113 -52 -113 -58 0 -88 60 -54 108 19 27 78 30 106 5z"/>
<path d="M2608 531 c4 -109 -5 -131 -54 -131 -28 0 -35 -3 -32 -17 2 -10 7
-17 11 -15 4 1 18 2 31 2 13 0 34 9 47 19 22 18 24 27 26 125 1 93 -1 106 -15
106 -15 0 -17 -11 -14 -89z"/>
<path d="M2679 591 c-80 -81 22 -204 124 -149 23 12 46 37 47 51 0 14 -27 7
-45 -13 -24 -27 -86 -27 -110 0 -10 11 -16 22 -14 25 3 2 44 5 92 6 84 3 87 3
87 27 0 13 -13 37 -29 53 -24 24 -38 29 -76 29 -38 0 -52 -5 -76 -29z m125
-17 c28 -27 18 -34 -54 -34 -38 0 -70 3 -70 7 0 38 93 58 124 27z"/>
<path d="M197 528 c2 -87 12 -135 40 -191 33 -67 84 -112 206 -185 59 -34 109
-67 112 -72 3 -6 13 -10 21 -10 11 0 14 16 14 73 0 83 -20 162 -51 201 -24 31
-138 110 -146 102 -12 -12 10 -60 48 -101 26 -28 39 -51 35 -60 -8 -21 -23
-19 -92 14 -95 45 -144 119 -144 219 0 36 -19 72 -38 72 -4 0 -6 -28 -5 -62z
m110 -214 c-9 -9 104 -65 134 -66 30 -1 75 35 64 51 -9 16 11 13 24 -3 16 -19
36 -129 28 -150 -6 -15 -15 -12 -69 17 -71 38 -186 117 -172 117 5 0 1 5 -9
11 -15 9 -16 29 0 29 4 0 4 -3 0 -6z"/>
<path d="M1042 578 c-7 -7 -12 -28 -12 -48 0 -105 -55 -188 -156 -234 -84 -39
-130 -13 -65 35 32 24 80 104 69 115 -10 9 -96 -48 -134 -88 -48 -51 -67 -110
-66 -206 0 -46 3 -86 5 -89 3 -3 16 5 29 17 13 12 69 49 126 82 123 72 154
102 195 188 26 54 32 80 35 152 4 86 -1 101 -26 76z m-258 -321 c21 -15 82 -2
129 26 26 16 50 28 52 26 12 -12 -117 -119 -144 -119 -5 0 -16 -6 -23 -14 -14
-13 -72 -46 -83 -46 -12 0 -4 102 11 140 l17 41 15 -23 c9 -13 21 -26 26 -31z"/>
<path d="M2480 540 c0 -5 23 -10 51 -10 31 0 48 4 44 10 -3 6 -26 10 -51 10
-24 0 -44 -4 -44 -10z"/>
<path d="M255 500 c10 -58 38 -113 71 -139 15 -12 29 -20 31 -18 2 2 -4 20
-12 40 -8 20 -16 48 -17 63 -2 14 -9 31 -17 37 -12 10 -14 9 -8 -5 3 -9 9 -33
13 -54 12 -63 -12 -30 -26 36 -7 33 -19 65 -28 72 -13 11 -14 7 -7 -32z"/>
<path d="M975 460 c-9 -38 -21 -70 -26 -70 -12 0 -11 11 6 59 8 22 10 41 5 41
-8 0 -30 -61 -30 -85 0 -5 -7 -23 -15 -39 -23 -44 -12 -41 33 8 37 40 62 95
62 139 0 41 -19 12 -35 -53z"/>
</g>
</svg>
